<svg width="367" height="366" viewBox="0 0 367 366" fill="none" xmlns="http://www.w3.org/2000/svg">
<path d="M304.008 0H62.6821C38.1943 24.4118 24.4878 38.0757 0 62.4875V303.064C24.4878 327.476 38.1943 341.14 62.6821 365.552H159.359V266.093H128.331C117.174 254.97 110.926 248.742 99.748 237.598V127.954C110.905 116.831 117.153 110.603 128.331 99.4592H238.338C249.495 110.582 255.743 116.81 266.921 127.954V237.619C255.764 248.742 249.516 254.97 238.338 266.113H209.504V365.573H304.008C328.496 341.161 342.202 327.497 366.69 303.085V62.4875C342.202 38.0757 328.496 24.4118 304.008 0Z" fill="black"/>
</svg>
